<svg width="1440" height="900" viewBox="0 0 1440 900" fill="none" xmlns="http://www.w3.org/2000/svg">
<g clip-path="url(#clip0)">
<rect width="1440" height="900" fill="white"/>
<rect width="1440" height="900" fill="#FFFCFC"/>
<g clip-path="url(#clip1)">
<path d="M849.209 277.504C845.047 273.039 836.798 273.644 826.884 278.109C824.236 279.32 821.435 280.758 818.56 282.498C815.987 281.893 813.262 281.515 810.538 281.515C801.154 281.515 792.678 285.299 786.548 291.429C780.418 297.634 776.634 306.11 776.634 315.494C776.634 318.067 776.937 320.565 777.466 322.911C775.65 325.711 774.136 328.511 772.926 331.16C768.309 340.998 767.552 349.247 771.79 353.56C776.028 357.95 784.353 357.344 794.191 352.879C796.84 351.668 799.64 350.231 802.44 348.49C805.013 349.095 807.738 349.474 810.462 349.474C819.846 349.474 828.322 345.69 834.452 339.56C840.582 333.43 844.366 324.954 844.366 315.57C844.366 312.997 844.063 310.499 843.533 308.153C845.35 305.353 846.863 302.553 848.074 299.905C852.691 290.066 853.447 281.817 849.209 277.504ZM788.818 293.775C794.343 288.25 802.062 284.769 810.538 284.769C819.014 284.769 826.733 288.174 832.257 293.775C834.149 295.667 835.814 297.786 837.101 300.132C836.798 300.964 836.42 301.796 836.041 302.629C832.863 309.289 827.111 317.159 819.543 324.651C811.976 332.068 803.954 337.744 797.218 340.771C796.31 341.149 795.478 341.528 794.645 341.83C792.526 340.544 790.559 339.03 788.742 337.214C783.294 331.689 779.812 323.97 779.812 315.494C779.812 307.018 783.294 299.299 788.818 293.775ZM830.441 288.023C833.544 287.418 836.041 287.72 837.404 289.158C838.766 290.52 839.068 293.018 838.387 296.121C837.252 294.456 835.966 292.942 834.528 291.504C833.241 290.218 831.879 289.083 830.441 288.023ZM790.634 342.965C787.532 343.571 785.034 343.268 783.672 341.83C782.31 340.468 782.007 337.971 782.688 334.868C783.823 336.533 785.11 338.046 786.548 339.484C787.834 340.771 789.196 341.906 790.634 342.965ZM832.257 337.214C826.733 342.738 819.014 346.22 810.538 346.22C809.176 346.22 807.813 346.144 806.451 345.917C812.581 341.83 818.938 336.608 825.144 330.554L825.219 330.479C831.425 324.349 836.798 318.067 841.036 311.937C841.187 313.148 841.263 314.283 841.263 315.494C841.263 323.97 837.858 331.689 832.257 337.214ZM822.949 328.208L822.873 328.284C812.657 338.273 801.91 345.841 792.829 349.928C784.202 353.863 777.239 354.62 773.985 351.29C770.731 348.036 771.639 341.074 775.726 332.522C776.558 330.781 777.542 328.965 778.601 327.149C779.131 328.511 779.737 329.873 780.418 331.16C778.526 336.76 778.677 341.376 781.402 344.101C784.731 347.506 791.013 347.052 798.581 343.647C805.619 340.468 813.943 334.641 821.814 326.922C829.684 319.202 835.663 311.029 838.993 303.991C842.55 296.499 843.079 290.218 839.75 286.888C837.101 284.163 832.484 283.936 826.809 285.677C825.522 284.996 824.16 284.39 822.798 283.861C824.69 282.801 826.506 281.893 828.246 281.061C836.874 277.125 843.836 276.369 847.09 279.698C850.269 282.953 849.361 289.915 845.274 298.467C841.036 307.472 833.241 318.143 822.949 328.208Z" fill="#C4C4C4"/>
</g>
<g clip-path="url(#clip2)">
<path d="M539.99 827.044C543.445 822.012 541.064 814.091 534.555 805.382C532.798 803.059 530.787 800.637 528.464 798.208C528.497 795.565 528.275 792.823 527.684 790.163C525.648 781.003 520.115 773.55 512.801 768.896C505.414 764.258 496.319 762.403 487.158 764.439C484.646 764.998 482.274 765.835 480.099 766.861C476.971 765.695 473.91 764.825 471.061 764.218C460.456 761.846 452.239 762.897 448.948 767.97C445.582 773.059 447.98 781.054 454.473 789.689C456.229 792.012 458.241 794.434 460.547 796.79C460.514 799.433 460.736 802.174 461.327 804.834C463.363 813.994 468.896 821.448 476.21 826.102C483.524 830.756 492.619 832.61 501.779 830.574C504.291 830.016 506.663 829.179 508.838 828.153C511.966 829.318 515.028 830.188 517.876 830.796C528.481 833.168 536.698 832.117 539.99 827.044ZM511.004 771.621C517.595 775.815 522.668 782.595 524.507 790.869C526.346 799.144 524.697 807.418 520.428 814.026C518.992 816.283 517.285 818.368 515.274 820.133C514.395 820.018 513.501 819.829 512.606 819.64C505.415 817.983 496.484 814.076 487.529 808.314C478.647 802.535 471.366 795.936 466.95 790.017C466.383 789.213 465.833 788.482 465.357 787.736C466.153 785.388 467.204 783.139 468.583 780.972C472.794 774.454 479.574 769.381 487.848 767.542C496.122 765.703 504.412 767.427 511.004 771.621ZM525.649 811.005C526.913 813.902 527.159 816.406 526.051 818.048C525.017 819.673 522.645 820.51 519.468 820.519C520.847 819.049 522.046 817.465 523.137 815.749C524.114 814.214 524.927 812.638 525.649 811.005ZM463.379 784.066C462.115 781.169 461.868 778.665 462.976 777.024C464.011 775.398 466.383 774.561 469.559 774.553C468.18 776.022 466.982 777.606 465.89 779.322C464.914 780.857 464.101 782.433 463.379 784.066ZM478.024 823.45C471.432 819.256 466.359 812.476 464.52 804.202C464.225 802.872 464.003 801.526 463.929 800.147C469.248 805.244 475.725 810.317 482.981 815.061L483.072 815.118C490.402 819.846 497.699 823.729 504.603 826.536C503.454 826.946 502.362 827.266 501.18 827.529C492.906 829.368 484.632 827.718 478.024 823.45ZM484.795 812.41L484.705 812.352C472.737 804.546 463.018 795.698 457.058 787.719C451.345 780.151 449.096 773.519 451.64 769.62C454.111 765.737 461.104 765.113 470.339 767.247C472.219 767.682 474.205 768.248 476.208 768.889C474.993 769.701 473.795 770.588 472.687 771.532C466.809 770.9 462.336 772.049 460.267 775.3C457.665 779.289 459.472 785.322 464.438 791.971C469.068 798.152 476.562 805.014 485.805 811.022C495.048 817.031 504.324 821.094 511.916 822.817C520.002 824.664 526.248 823.818 528.777 819.845C530.861 816.669 530.082 812.113 527.151 806.95C527.537 805.546 527.832 804.085 528.054 802.64C529.498 804.257 530.779 805.833 531.969 807.352C537.683 814.92 539.932 821.552 537.387 825.451C534.9 829.26 527.907 829.884 518.672 827.75C508.962 825.567 496.854 820.273 484.795 812.41Z" fill="#C4C4C4"/>
</g>
<g clip-path="url(#clip3)">
<path d="M986.355 644.395C983.132 648.294 979.485 652.3 975.549 656.236C971.613 660.172 967.607 663.82 963.709 667.043C963.972 667.052 964.235 667.062 964.5 667.062C970.3 667.056 975.86 664.749 979.961 660.648C984.062 656.547 986.368 650.987 986.375 645.187C986.375 644.922 986.364 644.659 986.355 644.395V644.395Z" fill="#C4C4C4"/>
<path d="M995.438 614.252C992.407 611.22 986.857 612.295 978.47 617.537C975.382 619.495 972.403 621.621 969.547 623.905C965.916 623.04 962.123 623.12 958.531 624.137C954.939 625.154 951.668 627.074 949.028 629.713C946.388 632.353 944.468 635.625 943.452 639.217C942.435 642.809 942.355 646.601 943.219 650.233C940.935 653.089 938.81 656.067 936.852 659.156C931.609 667.543 930.534 673.093 933.563 676.125C934.141 676.688 934.828 677.128 935.583 677.416C936.337 677.704 937.142 677.835 937.949 677.8C941.063 677.8 945.23 676.152 950.53 672.839C957.402 668.542 965.502 661.862 973.338 654.028C981.173 646.194 987.853 638.093 992.148 631.22C997.391 622.832 998.466 617.282 995.438 614.252V614.252ZM985.922 629.353C981.854 635.518 975.817 642.712 968.921 649.607C962.025 656.501 954.832 662.54 948.667 666.608C942.6 670.61 939.331 671.518 938.129 671.56C938.171 670.359 939.079 667.089 943.081 661.022C943.968 659.677 944.956 658.282 946.017 656.853C947.169 658.673 948.581 660.314 950.207 661.725C956.062 657.373 961.579 652.583 966.711 647.397C971.896 642.266 976.686 636.749 981.039 630.895C979.628 629.267 977.986 627.855 976.166 626.703C977.594 625.64 978.99 624.654 980.334 623.767C986.401 619.765 989.67 618.857 990.872 618.815C990.83 620.017 989.923 623.286 985.92 629.353H985.922Z" fill="#C4C4C4"/>
<path d="M936.375 615.5C938.446 615.502 940.432 616.326 941.897 617.791C943.361 619.255 944.185 621.241 944.188 623.313C944.188 623.727 944.352 624.124 944.645 624.417C944.938 624.71 945.336 624.875 945.75 624.875C946.164 624.875 946.562 624.71 946.855 624.417C947.148 624.124 947.313 623.727 947.313 623.313C947.315 621.241 948.139 619.255 949.603 617.791C951.068 616.326 953.054 615.502 955.125 615.5C955.539 615.5 955.937 615.335 956.23 615.042C956.523 614.749 956.688 614.352 956.688 613.938C956.688 613.523 956.523 613.126 956.23 612.833C955.937 612.54 955.539 612.375 955.125 612.375C953.054 612.373 951.068 611.549 949.603 610.084C948.139 608.62 947.315 606.634 947.313 604.563C947.313 604.148 947.148 603.751 946.855 603.458C946.562 603.165 946.164 603 945.75 603C945.336 603 944.938 603.165 944.645 603.458C944.352 603.751 944.188 604.148 944.188 604.563C944.185 606.634 943.361 608.62 941.897 610.084C940.432 611.549 938.446 612.373 936.375 612.375C935.961 612.375 935.563 612.54 935.27 612.833C934.977 613.126 934.813 613.523 934.813 613.938C934.813 614.352 934.977 614.749 935.27 615.042C935.563 615.335 935.961 615.5 936.375 615.5Z" fill="#C4C4C4"/>
<path d="M986.375 671.75C988.101 671.75 989.5 670.351 989.5 668.625C989.5 666.899 988.101 665.5 986.375 665.5C984.649 665.5 983.25 666.899 983.25 668.625C983.25 670.351 984.649 671.75 986.375 671.75Z" fill="#C4C4C4"/>
<path d="M933.25 646.75C934.976 646.75 936.375 645.351 936.375 643.625C936.375 641.899 934.976 640.5 933.25 640.5C931.524 640.5 930.125 641.899 930.125 643.625C930.125 645.351 931.524 646.75 933.25 646.75Z" fill="#C4C4C4"/>
<path d="M995.75 643.625C997.476 643.625 998.875 642.226 998.875 640.5C998.875 638.774 997.476 637.375 995.75 637.375C994.024 637.375 992.625 638.774 992.625 640.5C992.625 642.226 994.024 643.625 995.75 643.625Z" fill="#C4C4C4"/>
</g>
<g clip-path="url(#clip4)">
<path d="M142.067 116.532C137.021 116.184 131.64 115.554 126.148 114.648C120.656 113.742 115.357 112.612 110.467 111.322C110.612 111.541 110.757 111.76 110.911 111.976C114.296 116.686 119.41 119.861 125.132 120.804C130.854 121.748 136.718 120.384 141.435 117.01C141.651 116.855 141.859 116.693 142.067 116.532V116.532Z" fill="#C4C4C4"/>
<path d="M171.858 106.352C172.556 102.123 168.449 98.2382 159.302 94.4761C155.911 93.1068 152.448 91.9241 148.928 90.9335C147.515 87.4783 145.24 84.4426 142.321 82.1157C139.402 79.7888 135.936 78.2481 132.252 77.6407C128.569 77.0332 124.792 77.3791 121.28 78.6453C117.768 79.9116 114.639 82.0561 112.191 84.8745C108.539 84.6821 104.88 84.6901 101.229 84.8982C91.3583 85.5238 86.2208 87.883 85.5212 92.1112C85.4001 92.9095 85.4436 93.7242 85.649 94.505C85.8544 95.2859 86.2172 96.0166 86.7154 96.6521C88.5299 99.1833 92.297 101.61 98.0771 103.987C105.573 107.069 115.721 109.76 126.654 111.564C137.586 113.368 148.062 114.078 156.15 113.565C166.022 112.938 171.16 110.579 171.858 106.352V106.352ZM154.04 107.416C146.66 107.702 137.295 106.987 127.674 105.399C118.053 103.81 108.954 101.484 102.056 98.8427C95.269 96.2437 92.6268 94.1154 91.8922 93.1631C92.8931 92.4976 96.0794 91.33 103.342 91.0483C104.952 90.9859 106.662 90.9757 108.441 91.0057C107.633 93.0019 107.121 95.1056 106.922 97.2499C113.871 99.4724 120.978 101.166 128.182 102.315C135.374 103.54 142.648 104.219 149.942 104.346C150.443 102.251 150.634 100.094 150.51 97.943C152.206 98.4848 153.821 99.0447 155.325 99.6206C162.112 102.22 164.755 104.348 165.489 105.3C164.488 105.966 161.302 107.133 154.039 107.415L154.04 107.416Z" fill="#C4C4C4"/>
<path d="M136.433 59.0761C137.638 60.7609 138.125 62.8548 137.788 64.8985C137.451 66.9422 136.317 68.7687 134.635 69.9774C134.298 70.2188 134.071 70.5841 134.003 70.993C133.936 71.4019 134.034 71.8208 134.275 72.1576C134.517 72.4944 134.882 72.7215 135.291 72.789C135.7 72.8564 136.119 72.7586 136.455 72.5172C138.14 71.3124 140.234 70.825 142.278 71.1621C144.322 71.4992 146.148 72.6331 147.357 74.3151C147.598 74.6519 147.964 74.879 148.372 74.9465C148.781 75.0139 149.2 74.9162 149.537 74.6747C149.874 74.4333 150.101 74.0679 150.168 73.6591C150.236 73.2502 150.138 72.8313 149.897 72.4945C148.692 70.8097 148.204 68.7157 148.541 66.6721C148.879 64.6284 150.012 62.8019 151.695 61.5932C152.031 61.3518 152.258 60.9864 152.326 60.5775C152.393 60.1687 152.296 59.7497 152.054 59.4129C151.813 59.0761 151.447 58.849 151.038 58.7816C150.63 58.7142 150.211 58.8119 149.874 59.0534C148.189 60.2582 146.095 60.7455 144.051 60.4085C142.008 60.0714 140.181 58.9375 138.973 57.2554C138.731 56.9186 138.366 56.6915 137.957 56.6241C137.548 56.5567 137.129 56.6544 136.792 56.8958C136.456 57.1373 136.228 57.5026 136.161 57.9115C136.094 58.3204 136.191 58.7393 136.433 59.0761Z" fill="#C4C4C4"/>
<path d="M119.846 132.486C120.852 133.888 122.804 134.21 124.207 133.205C125.61 132.199 125.931 130.247 124.926 128.844C123.92 127.442 121.968 127.12 120.565 128.125C119.163 129.131 118.841 131.083 119.846 132.486Z" fill="#C4C4C4"/>
<path d="M109.214 74.743C110.219 76.1457 112.171 76.4677 113.574 75.4621C114.977 74.4566 115.299 72.5043 114.293 71.1016C113.288 69.6989 111.336 69.3769 109.933 70.3824C108.53 71.388 108.208 73.3402 109.214 74.743Z" fill="#C4C4C4"/>
<path d="M148.167 123.719C149.172 125.122 151.125 125.444 152.527 124.438C153.93 123.433 154.252 121.48 153.247 120.078C152.241 118.675 150.289 118.353 148.886 119.359C147.483 120.364 147.161 122.316 148.167 123.719Z" fill="#C4C4C4"/>
</g>
<g clip-path="url(#clip5)">
<path d="M1359.89 429.358C1354.85 429.01 1349.47 428.38 1343.97 427.474C1338.48 426.568 1333.18 425.438 1328.29 424.148C1328.44 424.367 1328.58 424.586 1328.74 424.802C1332.12 429.512 1337.24 432.687 1342.96 433.63C1348.68 434.574 1354.54 433.21 1359.26 429.836C1359.48 429.681 1359.68 429.519 1359.89 429.358V429.358Z" fill="#C4C4C4"/>
<path d="M1389.68 419.178C1390.38 414.949 1386.27 411.064 1377.13 407.302C1373.74 405.933 1370.27 404.75 1366.75 403.76C1365.34 400.304 1363.07 397.269 1360.15 394.942C1357.23 392.615 1353.76 391.074 1350.08 390.467C1346.4 389.859 1342.62 390.205 1339.11 391.471C1335.59 392.738 1332.47 394.882 1330.02 397.701C1326.37 397.508 1322.71 397.516 1319.06 397.724C1309.18 398.35 1304.05 400.709 1303.35 404.937C1303.23 405.736 1303.27 406.55 1303.48 407.331C1303.68 408.112 1304.04 408.843 1304.54 409.478C1306.36 412.009 1310.12 414.436 1315.9 416.813C1323.4 419.895 1333.55 422.587 1344.48 424.39C1355.41 426.194 1365.89 426.904 1373.98 426.391C1383.85 425.764 1388.99 423.405 1389.68 419.178V419.178ZM1371.87 420.242C1364.49 420.528 1355.12 419.813 1345.5 418.225C1335.88 416.637 1326.78 414.31 1319.88 411.669C1313.1 409.07 1310.45 406.942 1309.72 405.989C1310.72 405.324 1313.91 404.156 1321.17 403.874C1322.78 403.812 1324.49 403.802 1326.27 403.832C1325.46 405.828 1324.95 407.932 1324.75 410.076C1331.7 412.299 1338.8 413.992 1346.01 415.141C1353.2 416.366 1360.47 417.045 1367.77 417.172C1368.27 415.077 1368.46 412.92 1368.34 410.769C1370.03 411.311 1371.65 411.871 1373.15 412.447C1379.94 415.046 1382.58 417.174 1383.32 418.126C1382.31 418.792 1379.13 419.959 1371.87 420.241L1371.87 420.242Z" fill="#C4C4C4"/>
<path d="M1354.26 371.902C1355.46 373.587 1355.95 375.681 1355.61 377.725C1355.28 379.768 1354.14 381.595 1352.46 382.803C1352.12 383.045 1351.9 383.41 1351.83 383.819C1351.76 384.228 1351.86 384.647 1352.1 384.984C1352.34 385.321 1352.71 385.548 1353.12 385.615C1353.53 385.683 1353.94 385.585 1354.28 385.343C1355.97 384.138 1358.06 383.651 1360.1 383.988C1362.15 384.325 1363.97 385.459 1365.18 387.141C1365.42 387.478 1365.79 387.705 1366.2 387.773C1366.61 387.84 1367.03 387.742 1367.36 387.501C1367.7 387.259 1367.93 386.894 1367.99 386.485C1368.06 386.076 1367.96 385.657 1367.72 385.321C1366.52 383.636 1366.03 381.542 1366.37 379.498C1366.7 377.455 1367.84 375.628 1369.52 374.419C1369.86 374.178 1370.08 373.813 1370.15 373.404C1370.22 372.995 1370.12 372.576 1369.88 372.239C1369.64 371.902 1369.27 371.675 1368.86 371.608C1368.46 371.54 1368.04 371.638 1367.7 371.879C1366.02 373.084 1363.92 373.572 1361.88 373.235C1359.83 372.898 1358.01 371.764 1356.8 370.082C1356.56 369.745 1356.19 369.518 1355.78 369.45C1355.37 369.383 1354.96 369.481 1354.62 369.722C1354.28 369.963 1354.05 370.329 1353.99 370.738C1353.92 371.146 1354.02 371.565 1354.26 371.902Z" fill="#C4C4C4"/>
<path d="M1337.67 445.312C1338.68 446.714 1340.63 447.036 1342.03 446.031C1343.44 445.025 1343.76 443.073 1342.75 441.67C1341.75 440.268 1339.79 439.946 1338.39 440.951C1336.99 441.957 1336.67 443.909 1337.67 445.312Z" fill="#C4C4C4"/>
<path d="M1327.04 387.569C1328.05 388.972 1330 389.294 1331.4 388.288C1332.8 387.283 1333.12 385.33 1332.12 383.928C1331.11 382.525 1329.16 382.203 1327.76 383.209C1326.36 384.214 1326.03 386.166 1327.04 387.569Z" fill="#C4C4C4"/>
<path d="M1365.99 436.545C1367 437.948 1368.95 438.27 1370.35 437.264C1371.76 436.259 1372.08 434.307 1371.07 432.904C1370.07 431.501 1368.11 431.179 1366.71 432.185C1365.31 433.19 1364.99 435.142 1365.99 436.545Z" fill="#C4C4C4"/>
</g>
<g clip-path="url(#clip6)">
<path d="M1321.5 121.323C1321.28 121.449 1321.12 121.677 1321.1 121.934C1320.4 128.693 1323.48 135.22 1329.14 138.966L1344.36 149.039L1346.67 157.461C1346.72 157.646 1346.84 157.806 1347 157.911L1350.81 160.435C1351.18 160.676 1351.67 160.576 1351.91 160.212C1352.15 159.848 1352.05 159.357 1351.68 159.116L1348.12 156.756L1346.36 150.365L1355.82 156.625L1359.68 161.937L1358.54 163.654L1354.56 161.018C1354.19 160.777 1353.7 160.877 1353.46 161.241C1353.22 161.605 1353.32 162.096 1353.68 162.337L1358.33 165.409C1358.69 165.65 1359.18 165.55 1359.42 165.186L1361.3 162.353C1361.48 162.032 1361.47 161.732 1361.28 161.452L1357.34 156.026L1358.83 153.787L1362.87 158.203C1363.31 158.575 1363.73 158.542 1364.11 158.106L1366.91 153.877C1367.15 153.513 1367.05 153.023 1366.69 152.781C1366.32 152.54 1365.83 152.64 1365.59 153.005L1363.35 156.388L1359.73 152.427L1364.67 144.958L1369.73 146.747L1367.49 150.13C1367.25 150.495 1367.35 150.985 1367.72 151.226C1368.08 151.468 1368.57 151.368 1368.81 151.003L1371.61 146.775C1371.89 146.354 1371.71 145.767 1371.21 145.593L1365.57 143.598L1367.05 141.359L1373.58 142.86C1373.9 142.933 1374.24 142.8 1374.42 142.525L1376.29 139.693C1376.52 139.266 1376.45 138.9 1376.07 138.597L1364.74 131.099C1364.58 130.993 1364.39 130.949 1364.2 130.974L1355.54 132.14L1340.32 122.067C1334.66 118.322 1327.45 118.037 1321.5 121.323V121.323ZM1359.93 136.938L1350.49 151.199L1348.97 150.195L1358.41 135.935L1359.93 136.938ZM1351.81 152.072L1361.25 137.811L1362.76 138.812L1353.32 153.072L1351.81 152.072ZM1357.09 135.062L1347.66 149.322L1346.14 148.322L1355.58 134.062L1357.09 135.062ZM1354.64 153.945L1364.08 139.684L1365.6 140.689L1356.16 154.95L1354.64 153.945ZM1364.12 132.582L1374.54 139.479L1373.4 141.195L1367.01 139.726L1357.55 133.466L1364.12 132.582ZM1354.26 133.189L1344.82 147.449L1330.01 137.647C1328.75 136.809 1327.62 135.818 1326.65 134.71L1330.01 129.642C1330.24 129.215 1330.16 128.849 1329.78 128.546C1329.42 128.305 1328.93 128.405 1328.69 128.769L1325.62 133.401C1323.42 130.285 1322.32 126.453 1322.63 122.511C1326.14 120.685 1330.09 120.192 1333.83 121.007L1330.59 125.894C1330.35 126.258 1330.45 126.748 1330.81 126.99C1331.18 127.231 1331.67 127.131 1331.91 126.766L1335.43 121.443C1336.83 121.9 1338.18 122.548 1339.45 123.386L1354.26 133.189Z" fill="#C4C4C4"/>
<path d="M1335.04 135.745L1340.91 139.628C1345.91 142.854 1350.01 135.604 1345.53 132.644L1339.67 128.761C1334.69 125.471 1330.4 132.67 1335.04 135.745V135.745ZM1338.79 130.08L1344.66 133.963C1347.3 135.711 1344.52 140.12 1341.78 138.309L1335.92 134.426C1333.28 132.678 1335.76 128.116 1338.79 130.08Z" fill="#C4C4C4"/>
<path d="M1370.98 155.455L1382.31 162.953C1382.68 163.194 1383.17 163.094 1383.41 162.729C1383.64 162.303 1383.56 161.937 1383.19 161.633L1371.86 154.135C1371.49 153.894 1371 153.994 1370.76 154.359C1370.52 154.723 1370.62 155.213 1370.98 155.455V155.455Z" fill="#C4C4C4"/>
<path d="M1378.48 162.592L1372.81 158.843C1372.45 158.602 1371.96 158.701 1371.72 159.066C1371.48 159.43 1371.58 159.921 1371.94 160.162L1377.61 163.911C1377.97 164.152 1378.48 164.063 1378.7 163.688C1378.87 163.406 1378.96 162.916 1378.48 162.592V162.592Z" fill="#C4C4C4"/>
<path d="M1375.56 154.696L1381.22 158.445C1381.59 158.686 1382.08 158.586 1382.32 158.221C1382.55 157.794 1382.47 157.429 1382.1 157.125L1376.43 153.376C1376.07 153.135 1375.58 153.235 1375.33 153.6C1375.09 153.964 1375.19 154.454 1375.56 154.696Z" fill="#C4C4C4"/>
</g>
<g clip-path="url(#clip7)">
<path d="M-63.3837 431.262C-63.9291 431.563 -64.2925 432.112 -64.3567 432.732C-66.0416 449.005 -58.6243 464.718 -44.9972 473.736L-8.34967 497.988L-2.78959 518.264C-2.66774 518.709 -2.38851 519.094 -2.00408 519.348L7.17861 525.425C8.05581 526.005 9.23695 525.765 9.81727 524.888C10.3973 524.011 10.1569 522.83 9.28018 522.249L0.693662 516.567L-3.52564 501.181L19.2492 516.253L28.5229 529.041L25.7883 533.173L16.1996 526.828C15.3224 526.248 14.1412 526.488 13.5609 527.365C12.9809 528.242 13.2213 529.423 14.098 530.004L25.2747 537.4C26.1519 537.98 27.333 537.74 27.9134 536.863L32.4268 530.042C32.8586 529.27 32.8431 528.547 32.3802 527.874L22.9071 514.809L26.4748 509.418L36.2078 520.051C37.2817 520.946 38.2793 520.868 39.2002 519.817L45.9367 509.637C46.5167 508.76 46.2763 507.579 45.3996 506.998C44.5224 506.418 43.3412 506.658 42.7609 507.535L37.3704 515.681L28.6413 506.145L40.5406 488.163L52.7307 492.47L47.3399 500.616C46.7599 501.493 47.0003 502.674 47.877 503.254C48.7542 503.835 49.9354 503.594 50.5157 502.717L57.2521 492.538C57.9224 491.525 57.4854 490.111 56.2985 489.692L42.7067 484.89L46.2745 479.498L62.0037 483.111C62.7774 483.288 63.5798 482.968 64.0179 482.306L68.5307 475.486C69.0801 474.459 68.901 473.579 67.9936 472.848L40.7153 454.796C40.3309 454.542 39.8673 454.435 39.4103 454.497L18.5717 457.303L-18.0746 433.052C-31.7016 424.035 -49.0632 423.349 -63.3837 431.262V431.262ZM29.128 468.855L6.40876 503.188L2.75689 500.771L25.476 466.439L29.128 468.855ZM9.58427 505.289L32.3037 470.957L35.9427 473.365L13.2232 507.697L9.58427 505.289ZM22.3004 464.337L-0.418676 498.669L-4.05737 496.261L18.6615 461.929L22.3004 464.337ZM16.399 509.799L39.1185 475.467L42.7748 477.886L20.0553 512.219L16.399 509.799ZM39.2101 458.366L64.3043 474.973L61.5703 479.104L46.1715 475.567L23.3965 460.496L39.2101 458.366ZM15.4859 459.827L-7.23378 494.16L-42.8957 470.56C-45.9439 468.543 -48.6513 466.159 -50.9798 463.49L-42.9056 451.288C-42.3563 450.26 -42.5353 449.381 -43.4427 448.65C-44.3199 448.069 -45.5011 448.31 -46.0814 449.187L-53.4605 460.338C-58.7759 452.838 -61.4067 443.61 -60.6599 434.121C-52.2174 429.724 -42.696 428.539 -33.7146 430.499L-41.5004 442.264C-42.0802 443.141 -41.8403 444.323 -40.9633 444.903C-40.0861 445.483 -38.905 445.243 -38.3246 444.366L-29.8438 431.55C-26.4773 432.651 -23.2242 434.211 -20.1762 436.228L15.4859 459.827Z" fill="#C4C4C4"/>
<path d="M-30.7806 465.983L-16.6542 475.331C-4.62873 483.098 5.24366 465.644 -5.52671 458.516L-19.6531 449.168C-31.6232 441.247 -41.9683 458.58 -30.7806 465.983V465.983ZM-21.7549 452.344L-7.62824 461.692C-1.26862 465.901 -7.96725 476.515 -14.5526 472.156L-28.6792 462.808C-35.0389 458.599 -29.0528 447.614 -21.7549 452.344Z" fill="#C4C4C4"/>
<path d="M55.7417 513.434L83.0202 531.485C83.8974 532.066 85.0786 531.825 85.6589 530.948C86.2083 529.92 86.0292 529.041 85.1218 528.31L57.8432 510.258C56.966 509.678 55.7849 509.918 55.2046 510.795C54.6245 511.672 54.8649 512.853 55.7417 513.434V513.434Z" fill="#C4C4C4"/>
<path d="M73.7895 530.616L60.15 521.591C59.2728 521.01 58.0916 521.251 57.5113 522.128C56.9311 523.005 57.1717 524.186 58.0484 524.766L71.688 533.792C72.5652 534.372 73.7885 534.158 74.3266 533.255C74.7314 532.576 74.9527 531.398 73.7895 530.616V530.616Z" fill="#C4C4C4"/>
<path d="M66.7572 511.606L80.3965 520.632C81.2737 521.212 82.4549 520.972 83.0352 520.095C83.5846 519.067 83.4055 518.188 82.4981 517.456L68.8588 508.431C67.9816 507.85 66.8005 508.091 66.2201 508.968C65.6401 509.845 65.8805 511.026 66.7572 511.606Z" fill="#C4C4C4"/>
<ellipse cx="58.5155" cy="454.79" rx="1.64718" ry="1.64718" fill="#E5E5E5"/>
<circle cx="9.57452" cy="443.202" r="5" fill="#E5E5E5"/>
</g>
<circle cx="179" cy="806" r="5" fill="#E5E5E5"/>
<circle cx="406" cy="878" r="5" fill="#E5E5E5"/>
<circle cx="634" cy="841" r="5" fill="#E5E5E5"/>
<circle cx="857" cy="883" r="5" fill="#E5E5E5"/>
<circle cx="1160" cy="777" r="5" fill="#E5E5E5"/>
<circle cx="1137" cy="846" r="5" fill="#E5E5E5"/>
<circle cx="1130" cy="673" r="5" fill="#E5E5E5"/>
<circle cx="1027" cy="770" r="5" fill="#E5E5E5"/>
<circle cx="1216" cy="329" r="5" fill="#E5E5E5"/>
<circle cx="673" cy="651" r="5" fill="#E5E5E5"/>
<circle cx="598" cy="262" r="5" fill="#E5E5E5"/>
<circle cx="372" cy="660" r="5" fill="#E5E5E5"/>
<circle cx="685" cy="440" r="5" fill="#E5E5E5"/>
<circle cx="668.5" cy="516.5" r="2.5" fill="#E5E5E5"/>
<circle cx="687.5" cy="369.5" r="2.5" fill="#E5E5E5"/>
<circle cx="673.5" cy="142.5" r="2.5" fill="#E5E5E5"/>
<circle cx="1034.5" cy="191.5" r="2.5" fill="#E5E5E5"/>
<circle cx="1198.5" cy="124.5" r="2.5" fill="#E5E5E5"/>
<circle cx="1208.5" cy="230.5" r="2.5" fill="#E5E5E5"/>
<circle cx="882.5" cy="318.5" r="2.5" fill="#E5E5E5"/>
<circle cx="771.5" cy="461.5" r="2.5" fill="#E5E5E5"/>
<circle cx="845.5" cy="157.5" r="3.5" fill="#E5E5E5"/>
<circle cx="739.5" cy="227.5" r="3.5" fill="#E5E5E5"/>
<circle cx="601.5" cy="65.5" r="3.5" fill="#E5E5E5"/>
<circle cx="394.5" cy="69.5" r="3.5" fill="#E5E5E5"/>
<circle cx="278" cy="189" r="5" fill="#E5E5E5"/>
<circle cx="722.5" cy="710.5" r="3.5" fill="#E5E5E5"/>
<circle cx="661.5" cy="800.5" r="3.5" fill="#E5E5E5"/>
<circle cx="782.5" cy="821.5" r="3.5" fill="#E5E5E5"/>
<circle cx="845.5" cy="860.5" r="3.5" fill="#E5E5E5"/>
<circle cx="1135.5" cy="733.5" r="3.5" fill="#E5E5E5"/>
<circle cx="1270.5" cy="842.5" r="3.5" fill="#E5E5E5"/>
<circle cx="1376.5" cy="628.5" r="3.5" fill="#E5E5E5"/>
<circle cx="1235.5" cy="212.5" r="3.5" fill="#E5E5E5"/>
<circle cx="1365.5" cy="270.5" r="3.5" fill="#E5E5E5"/>
<circle cx="1287.5" cy="357.5" r="3.5" fill="#E5E5E5"/>
<circle cx="1304.5" cy="84.5" r="3.5" fill="#E5E5E5"/>
<circle cx="823.5" cy="660.5" r="2.5" fill="#E5E5E5"/>
<circle cx="745.5" cy="769.5" r="2.5" fill="#E5E5E5"/>
<circle cx="626.5" cy="827.5" r="2.5" fill="#E5E5E5"/>
<circle cx="849.5" cy="825.5" r="2.5" fill="#E5E5E5"/>
<circle cx="1039.5" cy="820.5" r="2.5" fill="#E5E5E5"/>
<circle cx="1129.5" cy="733.5" r="2.5" fill="#E5E5E5"/>
<circle cx="828.5" cy="429.5" r="2.5" fill="#E5E5E5"/>
<circle cx="722.5" cy="566.5" r="2.5" fill="#E5E5E5"/>
<circle cx="776.5" cy="713.5" r="2.5" fill="#E5E5E5"/>
<circle cx="915.5" cy="854.5" r="2.5" fill="#E5E5E5"/>
<circle cx="1044.5" cy="807.5" r="2.5" fill="#E5E5E5"/>
<g clip-path="url(#clip8)">
<path d="M396.463 217.178L388.699 230.624C387.606 230.16 386.576 230.16 386.257 230.711C385.88 231.367 386.628 232.497 387.933 233.25C389.237 234.002 390.596 234.081 390.972 233.433C391.281 232.891 390.789 232.033 389.883 231.309L397.965 217.306C397.435 217.274 396.978 217.221 396.463 217.178Z" fill="#C4C4C4"/>
<path d="M426.682 234.607V217.416C426.225 217.407 425.783 217.407 425.325 217.416V234.607C424.16 234.755 423.286 235.264 423.286 235.893C423.286 236.645 424.501 237.259 426.006 237.259C427.513 237.259 428.723 236.646 428.723 235.893C428.722 235.264 427.853 234.755 426.682 234.607Z" fill="#C4C4C4"/>
<path d="M463.313 230.633L455.55 217.187C455.042 217.221 454.582 217.274 454.051 217.315L462.142 231.319C461.23 232.028 460.741 232.891 461.055 233.433C461.433 234.081 462.794 234.002 464.093 233.25C465.397 232.497 466.145 231.358 465.774 230.711C465.441 230.159 464.409 230.168 463.313 230.633Z" fill="#C4C4C4"/>
<path d="M453.203 192.078C452.249 192.006 451.242 191.996 450.272 191.961C449.156 182.333 438.787 174.741 426.005 174.741C413.223 174.741 402.857 182.327 401.742 191.961C400.765 192.001 399.761 192.01 398.802 192.078C374.782 193.861 358 197.95 358 202.684C358 207.423 374.782 211.506 398.802 213.29C407.133 213.913 416.33 213.29 426.003 213.29C435.662 213.29 444.871 213.913 453.194 213.29C477.214 211.506 494.001 207.423 494.001 202.684C494 197.95 477.232 193.861 453.203 192.078ZM364.69 203.833C364.69 204.457 364.395 204.954 364.027 204.954H362.636C362.269 204.954 361.97 204.457 361.97 203.833V201.533C361.97 200.917 362.274 200.413 362.636 200.413H364.027C364.395 200.413 364.69 200.917 364.69 201.533V203.833ZM368.884 203.833C368.884 204.457 368.589 204.954 368.218 204.954H366.836C366.464 204.954 366.169 204.457 366.169 203.833V201.533C366.169 200.917 366.464 200.413 366.836 200.413H368.218C368.589 200.413 368.884 200.917 368.884 201.533V203.833ZM373.079 203.833C373.079 204.457 372.784 204.954 372.417 204.954H371.032C370.663 204.954 370.364 204.457 370.364 203.833V201.533C370.364 200.917 370.664 200.413 371.032 200.413H372.417C372.784 200.413 373.079 200.917 373.079 201.533V203.833ZM377.276 203.833C377.276 204.457 376.979 204.954 376.608 204.954H375.227C374.855 204.954 374.56 204.457 374.56 203.833V201.533C374.56 200.917 374.855 200.413 375.227 200.413H376.608C376.979 200.413 377.276 200.917 377.276 201.533V203.833ZM381.47 203.833C381.47 204.457 381.175 204.954 380.807 204.954H379.416C379.049 204.954 378.75 204.457 378.75 203.833V201.533C378.75 200.917 379.054 200.413 379.416 200.413H380.807C381.175 200.413 381.47 200.917 381.47 201.533V203.833ZM385.665 203.833C385.665 204.457 385.37 204.954 384.998 204.954H383.618C383.245 204.954 382.95 204.457 382.95 203.833V201.533C382.95 200.917 383.245 200.413 383.618 200.413H384.998C385.37 200.413 385.665 200.917 385.665 201.533V203.833ZM389.856 203.833C389.856 204.457 389.561 204.954 389.193 204.954H387.803C387.435 204.954 387.136 204.457 387.136 203.833V201.533C387.136 200.917 387.44 200.413 387.803 200.413H389.193C389.562 200.413 389.856 200.917 389.856 201.533V203.833ZM394.056 203.833C394.056 204.457 393.761 204.954 393.388 204.954H392.007C391.636 204.954 391.34 204.457 391.34 203.833V201.533C391.34 200.917 391.636 200.413 392.007 200.413H393.388C393.761 200.413 394.056 200.917 394.056 201.533V203.833ZM398.246 203.833C398.246 204.457 397.951 204.954 397.584 204.954H396.199C395.831 204.954 395.531 204.457 395.531 203.833V201.533C395.531 200.917 395.831 200.413 396.199 200.413H397.584C397.952 200.413 398.246 200.917 398.246 201.533V203.833ZM402.447 203.833C402.447 204.457 402.151 204.954 401.779 204.954H400.398C400.027 204.954 399.731 204.457 399.731 203.833V201.533C399.731 200.917 400.027 200.413 400.398 200.413H401.779C402.151 200.413 402.447 200.917 402.447 201.533V203.833ZM406.637 203.833C406.637 204.457 406.339 204.954 405.971 204.954H404.583C404.216 204.954 403.914 204.457 403.914 203.833V201.533C403.914 200.917 404.221 200.413 404.583 200.413H405.971C406.339 200.413 406.637 200.917 406.637 201.533V203.833ZM404.991 190.051C407.253 182.572 415.957 176.987 426.353 176.987C430.896 176.987 435.119 178.055 438.611 179.881C429.084 176.987 409.472 180.582 404.991 190.051ZM410.832 203.833C410.832 204.457 410.534 204.954 410.163 204.954H408.784C408.411 204.954 408.114 204.457 408.114 203.833V201.533C408.114 200.917 408.411 200.413 408.784 200.413H410.163C410.534 200.413 410.832 200.917 410.832 201.533V203.833ZM415.025 203.833C415.025 204.457 414.729 204.954 414.362 204.954H412.972C412.607 204.954 412.305 204.457 412.305 203.833V201.533C412.305 200.917 412.607 200.413 412.972 200.413H414.362C414.729 200.413 415.025 200.917 415.025 201.533V203.833ZM419.22 203.833C419.22 204.457 418.925 204.954 418.553 204.954H417.168C416.795 204.954 416.5 204.457 416.5 203.833V201.533C416.5 200.917 416.795 200.413 417.168 200.413H418.553C418.925 200.413 419.22 200.917 419.22 201.533V203.833ZM423.411 203.833C423.411 204.457 423.115 204.954 422.748 204.954H421.363C420.995 204.954 420.695 204.457 420.695 203.833V201.533C420.695 200.917 420.995 200.413 421.363 200.413H422.748C423.115 200.413 423.411 200.917 423.411 201.533V203.833ZM427.611 203.833C427.611 204.457 427.315 204.954 426.943 204.954H425.562C425.19 204.954 424.895 204.457 424.895 203.833V201.533C424.895 200.917 425.19 200.413 425.562 200.413H426.943C427.315 200.413 427.611 200.917 427.611 201.533V203.833ZM431.802 203.833C431.802 204.457 431.512 204.954 431.146 204.954H429.748C429.382 204.954 429.085 204.457 429.085 203.833V201.533C429.085 200.917 429.386 200.413 429.748 200.413H431.146C431.512 200.413 431.802 200.917 431.802 201.533V203.833ZM435.994 203.833C435.994 204.457 435.705 204.954 435.333 204.954H433.946C433.577 204.954 433.285 204.457 433.285 203.833V201.533C433.285 200.917 433.578 200.413 433.946 200.413H435.333C435.705 200.413 435.994 200.917 435.994 201.533V203.833ZM440.192 203.833C440.192 204.457 439.898 204.954 439.531 204.954H438.14C437.771 204.954 437.474 204.457 437.474 203.833V201.533C437.474 200.917 437.771 200.413 438.14 200.413H439.531C439.899 200.413 440.192 200.917 440.192 201.533V203.833ZM444.388 203.833C444.388 204.457 444.095 204.954 443.725 204.954H442.34C441.965 204.954 441.67 204.457 441.67 203.833V201.533C441.67 200.917 441.965 200.413 442.34 200.413H443.725C444.095 200.413 444.388 200.917 444.388 201.533V203.833ZM448.582 203.833C448.582 204.457 448.293 204.954 447.925 204.954H446.534C446.165 204.954 445.868 204.457 445.868 203.833V201.533C445.868 200.917 446.166 200.413 446.534 200.413H447.925C448.294 200.413 448.582 200.917 448.582 201.533V203.833ZM452.784 203.833C452.784 204.457 452.487 204.954 452.114 204.954H450.734C450.359 204.954 450.066 204.457 450.066 203.833V201.533C450.066 200.917 450.359 200.413 450.734 200.413H452.114C452.486 200.413 452.784 200.917 452.784 201.533V203.833ZM456.969 203.833C456.969 204.457 456.669 204.954 456.303 204.954H454.914C454.548 204.954 454.246 204.457 454.246 203.833V201.533C454.246 200.917 454.553 200.413 454.914 200.413H456.303C456.669 200.413 456.969 200.917 456.969 201.533V203.833ZM461.169 203.833C461.169 204.457 460.872 204.954 460.504 204.954H459.122C458.753 204.954 458.456 204.457 458.456 203.833V201.533C458.456 200.917 458.753 200.413 459.122 200.413H460.504C460.872 200.413 461.169 200.917 461.169 201.533V203.833ZM465.354 203.833C465.354 204.457 465.061 204.954 464.693 204.954H463.298C462.934 204.954 462.637 204.457 462.637 203.833V201.533C462.637 200.917 462.934 200.413 463.298 200.413H464.693C465.062 200.413 465.354 200.917 465.354 201.533V203.833ZM469.552 203.833C469.552 204.457 469.257 204.954 468.891 204.954H467.498C467.127 204.954 466.834 204.457 466.834 203.833V201.533C466.834 200.917 467.127 200.413 467.498 200.413H468.891C469.257 200.413 469.552 200.917 469.552 201.533V203.833ZM473.739 203.833C473.739 204.457 473.451 204.954 473.083 204.954H471.691C471.322 204.954 471.03 204.457 471.03 203.833V201.533C471.03 200.917 471.323 200.413 471.691 200.413H473.083C473.451 200.413 473.739 200.917 473.739 201.533V203.833ZM477.942 203.833C477.942 204.457 477.653 204.954 477.276 204.954H475.894C475.521 204.954 475.228 204.457 475.228 203.833V201.533C475.228 200.917 475.521 200.413 475.894 200.413H477.276C477.653 200.413 477.942 200.917 477.942 201.533V203.833ZM482.126 203.833C482.126 204.457 481.836 204.954 481.47 204.954H480.077C479.71 204.954 479.413 204.457 479.413 203.833V201.533C479.413 200.917 479.711 200.413 480.077 200.413H481.47C481.836 200.413 482.126 200.917 482.126 201.533V203.833ZM486.332 203.833C486.332 204.457 486.039 204.954 485.67 204.954H484.284C483.911 204.954 483.623 204.457 483.623 203.833V201.533C483.623 200.917 483.911 200.413 484.284 200.413H485.67C486.039 200.413 486.332 200.917 486.332 201.533V203.833ZM490.521 203.833C490.521 204.457 490.233 204.954 489.864 204.954H488.473C488.104 204.954 487.812 204.457 487.812 203.833V201.533C487.812 200.917 488.105 200.413 488.473 200.413H489.864C490.233 200.413 490.521 200.917 490.521 201.533V203.833Z" fill="#C4C4C4"/>
</g>
<g clip-path="url(#clip9)">
<path d="M1389.98 825.367L1386.73 840.55C1385.55 840.445 1384.57 840.762 1384.43 841.385C1384.28 842.125 1385.34 842.97 1386.81 843.285C1388.28 843.599 1389.6 843.255 1389.76 842.523C1389.89 841.912 1389.15 841.247 1388.07 840.838L1391.44 825.026C1390.93 825.158 1390.48 825.249 1389.98 825.367Z" fill="#C4C4C4"/>
<path d="M1424.09 832.643L1418.8 816.287C1418.36 816.419 1417.94 816.555 1417.51 816.705L1422.8 833.06C1421.74 833.561 1421.07 834.313 1421.26 834.912C1421.49 835.628 1422.84 835.837 1424.27 835.374C1425.7 834.91 1426.66 833.954 1426.43 833.237C1426.24 832.639 1425.25 832.423 1424.09 832.643Z" fill="#C4C4C4"/>
<path d="M1436.23 784.013C1435.3 784.239 1434.34 784.54 1433.4 784.805C1429.38 775.988 1417.18 771.959 1405.02 775.895C1392.85 779.831 1385.33 790.241 1387.23 799.749C1386.32 800.088 1385.36 800.406 1384.47 800.766C1362.17 809.859 1347.46 818.918 1348.92 823.422C1350.38 827.93 1367.6 826.647 1391.01 820.948C1399.12 818.975 1407.68 815.55 1416.88 812.571C1426.07 809.597 1435.03 807.353 1442.75 804.198C1465.06 795.103 1479.77 786.049 1478.31 781.54C1476.85 777.036 1459.64 778.31 1436.23 784.013ZM1355.64 822.455C1355.83 823.048 1355.7 823.612 1355.35 823.725L1354.03 824.153C1353.68 824.266 1353.24 823.886 1353.05 823.293L1352.34 821.105C1352.15 820.518 1352.29 819.945 1352.63 819.834L1353.95 819.405C1354.3 819.292 1354.74 819.68 1354.93 820.267L1355.64 822.455ZM1359.63 821.164C1359.82 821.757 1359.69 822.32 1359.34 822.435L1358.02 822.86C1357.67 822.974 1357.24 822.593 1357.05 822L1356.34 819.811C1356.15 819.225 1356.27 818.655 1356.63 818.54L1357.94 818.115C1358.29 818 1358.73 818.389 1358.92 818.975L1359.63 821.164ZM1363.62 819.872C1363.81 820.465 1363.68 821.028 1363.33 821.141L1362.02 821.568C1361.67 821.681 1361.23 821.301 1361.04 820.708L1360.33 818.519C1360.14 817.933 1360.27 817.361 1360.62 817.248L1361.94 816.822C1362.29 816.708 1362.72 817.097 1362.91 817.683L1363.62 819.872ZM1367.61 818.579C1367.8 819.173 1367.68 819.736 1367.32 819.851L1366.01 820.276C1365.65 820.39 1365.22 820.009 1365.03 819.416L1364.32 817.227C1364.13 816.641 1364.26 816.071 1364.61 815.956L1365.92 815.531C1366.28 815.417 1366.71 815.804 1366.9 816.391L1367.61 818.579ZM1371.6 817.288C1371.79 817.881 1371.67 818.444 1371.32 818.558L1369.99 818.986C1369.64 819.099 1369.21 818.719 1369.01 818.126L1368.31 815.937C1368.12 815.351 1368.25 814.778 1368.6 814.666L1369.92 814.238C1370.27 814.125 1370.7 814.513 1370.89 815.099L1371.6 817.288ZM1375.59 815.996C1375.79 816.589 1375.66 817.152 1375.3 817.267L1373.99 817.692C1373.64 817.807 1373.2 817.425 1373.01 816.832L1372.3 814.644C1372.11 814.057 1372.24 813.487 1372.59 813.372L1373.91 812.947C1374.26 812.833 1374.7 813.221 1374.89 813.808L1375.59 815.996ZM1379.58 814.705C1379.77 815.298 1379.65 815.862 1379.3 815.975L1377.97 816.403C1377.62 816.516 1377.19 816.136 1376.99 815.543L1376.28 813.355C1376.1 812.768 1376.23 812.195 1376.57 812.084L1377.9 811.655C1378.25 811.542 1378.68 811.93 1378.87 812.517L1379.58 814.705ZM1383.58 813.412C1383.77 814.005 1383.64 814.569 1383.29 814.683L1381.97 815.108C1381.62 815.223 1381.19 814.841 1380.99 814.248L1380.29 812.06C1380.1 811.473 1380.22 810.903 1380.57 810.789L1381.89 810.364C1382.24 810.249 1382.68 810.637 1382.87 811.224L1383.58 813.412ZM1387.56 812.122C1387.76 812.715 1387.63 813.278 1387.28 813.391L1385.96 813.818C1385.61 813.931 1385.17 813.551 1384.98 812.958L1384.27 810.769C1384.08 810.183 1384.21 809.611 1384.56 809.498L1385.88 809.071C1386.23 808.958 1386.67 809.347 1386.86 809.933L1387.56 812.122ZM1391.56 810.828C1391.75 811.421 1391.62 811.985 1391.27 812.099L1389.96 812.524C1389.6 812.639 1389.17 812.258 1388.98 811.664L1388.27 809.476C1388.08 808.889 1388.2 808.319 1388.56 808.205L1389.87 807.78C1390.23 807.665 1390.66 808.053 1390.85 808.64L1391.56 810.828ZM1395.55 809.538C1395.74 810.131 1395.61 810.695 1395.26 810.808L1393.94 811.236C1393.59 811.349 1393.15 810.969 1392.96 810.376L1392.25 808.188C1392.06 807.601 1392.19 807.028 1392.54 806.916L1393.86 806.489C1394.21 806.375 1394.65 806.763 1394.84 807.349L1395.55 809.538ZM1389.74 796.932C1389.59 789.119 1396.15 781.126 1406.04 777.925C1410.36 776.525 1414.71 776.241 1418.59 776.903C1408.64 777.083 1391.08 786.543 1389.74 796.932ZM1399.54 808.246C1399.73 808.839 1399.6 809.403 1399.25 809.518L1397.93 809.942C1397.58 810.057 1397.14 809.676 1396.95 809.083L1396.24 806.894C1396.05 806.308 1396.18 805.737 1396.54 805.622L1397.85 805.198C1398.2 805.083 1398.64 805.471 1398.83 806.057L1399.54 808.246ZM1403.53 806.954C1403.72 807.548 1403.59 808.111 1403.24 808.224L1401.92 808.653C1401.57 808.765 1401.13 808.385 1400.94 807.792L1400.23 805.604C1400.04 805.017 1400.17 804.445 1400.52 804.333L1401.84 803.905C1402.19 803.792 1402.63 804.179 1402.82 804.766L1403.53 806.954ZM1407.52 805.663C1407.71 806.256 1407.58 806.819 1407.23 806.934L1405.91 807.36C1405.56 807.475 1405.12 807.093 1404.93 806.5L1404.22 804.312C1404.03 803.725 1404.16 803.155 1404.51 803.041L1405.83 802.614C1406.18 802.499 1406.62 802.888 1406.81 803.474L1407.52 805.663ZM1411.51 804.372C1411.7 804.965 1411.57 805.529 1411.22 805.642L1409.9 806.068C1409.55 806.182 1409.11 805.802 1408.92 805.208L1408.21 803.02C1408.02 802.433 1408.15 801.862 1408.5 801.749L1409.82 801.322C1410.17 801.209 1410.61 801.597 1410.8 802.184L1411.51 804.372ZM1415.5 803.079C1415.69 803.672 1415.56 804.236 1415.21 804.35L1413.9 804.775C1413.54 804.89 1413.11 804.508 1412.92 803.915L1412.21 801.727C1412.02 801.14 1412.15 800.57 1412.5 800.456L1413.81 800.03C1414.17 799.916 1414.6 800.304 1414.79 800.89L1415.5 803.079ZM1419.49 801.788C1419.68 802.381 1419.56 802.943 1419.21 803.056L1417.88 803.486C1417.53 803.599 1417.1 803.218 1416.9 802.625L1416.2 800.436C1416.01 799.85 1416.14 799.278 1416.48 799.166L1417.81 798.736C1418.16 798.623 1418.59 799.013 1418.78 799.599L1419.49 801.788ZM1423.48 800.497C1423.67 801.09 1423.55 801.652 1423.19 801.766L1421.87 802.193C1421.52 802.307 1421.09 801.924 1420.9 801.331L1420.19 799.143C1420 798.556 1420.13 797.987 1420.48 797.874L1421.79 797.447C1422.15 797.332 1422.58 797.722 1422.77 798.309L1423.48 800.497ZM1427.47 799.204C1427.66 799.797 1427.54 800.36 1427.19 800.474L1425.86 800.902C1425.51 801.016 1425.08 800.634 1424.89 800.041L1424.18 797.853C1423.99 797.266 1424.11 796.696 1424.47 796.582L1425.79 796.154C1426.14 796.04 1426.57 796.429 1426.76 797.016L1427.47 799.204ZM1431.46 797.912C1431.66 798.505 1431.53 799.068 1431.18 799.182L1429.86 799.608C1429.5 799.724 1429.07 799.342 1428.88 798.749L1428.17 796.561C1427.98 795.974 1428.1 795.404 1428.46 795.289L1429.78 794.862C1430.13 794.748 1430.57 795.137 1430.75 795.724L1431.46 797.912ZM1435.45 796.621C1435.65 797.214 1435.52 797.775 1435.17 797.888L1433.85 798.317C1433.5 798.43 1433.06 798.049 1432.87 797.456L1432.16 795.268C1431.97 794.681 1432.1 794.111 1432.45 793.997L1433.78 793.569C1434.13 793.455 1434.56 793.846 1434.75 794.432L1435.45 796.621ZM1439.45 795.326C1439.64 795.92 1439.51 796.484 1439.16 796.599L1437.85 797.023C1437.49 797.139 1437.06 796.757 1436.87 796.163L1436.16 793.975C1435.97 793.388 1436.09 792.819 1436.45 792.704L1437.76 792.279C1438.11 792.164 1438.55 792.551 1438.74 793.138L1439.45 795.326ZM1443.43 794.038C1443.62 794.631 1443.49 795.196 1443.14 795.309L1441.82 795.736C1441.47 795.849 1441.03 795.469 1440.84 794.876L1440.13 792.688C1439.94 792.101 1440.08 791.528 1440.42 791.417L1441.75 790.989C1442.09 790.876 1442.53 791.263 1442.72 791.85L1443.43 794.038ZM1447.43 792.744C1447.62 793.337 1447.49 793.902 1447.14 794.015L1445.83 794.441C1445.47 794.554 1445.04 794.173 1444.85 793.58L1444.14 791.392C1443.95 790.805 1444.08 790.234 1444.43 790.121L1445.74 789.695C1446.09 789.582 1446.53 789.969 1446.72 790.556L1447.43 792.744ZM1451.41 791.456C1451.6 792.049 1451.48 792.611 1451.13 792.725L1449.8 793.155C1449.45 793.267 1449.02 792.886 1448.82 792.292L1448.12 790.104C1447.93 789.517 1448.05 788.947 1448.4 788.835L1449.73 788.405C1450.08 788.292 1450.51 788.681 1450.7 789.267L1451.41 791.456ZM1455.4 790.163C1455.6 790.756 1455.47 791.319 1455.12 791.432L1453.79 791.861C1453.44 791.975 1453.01 791.593 1452.82 791L1452.11 788.811C1451.92 788.225 1452.04 787.655 1452.4 787.541L1453.72 787.112C1454.07 786.999 1454.51 787.388 1454.7 787.974L1455.4 790.163ZM1459.39 788.873C1459.58 789.467 1459.46 790.028 1459.11 790.141L1457.78 790.57C1457.43 790.683 1457 790.301 1456.81 789.708L1456.1 787.519C1455.91 786.933 1456.04 786.363 1456.39 786.25L1457.71 785.822C1458.06 785.708 1458.49 786.098 1458.68 786.685L1459.39 788.873ZM1463.39 787.579C1463.58 788.172 1463.46 788.734 1463.1 788.85L1461.78 789.276C1461.43 789.39 1461 789.008 1460.8 788.415L1460.1 786.227C1459.91 785.64 1460.03 785.07 1460.38 784.956L1461.7 784.53C1462.06 784.414 1462.49 784.804 1462.68 785.391L1463.39 787.579ZM1467.37 786.291C1467.56 786.884 1467.44 787.446 1467.09 787.558L1465.76 787.987C1465.41 788.1 1464.98 787.719 1464.79 787.126L1464.08 784.938C1463.89 784.351 1464.02 783.78 1464.36 783.668L1465.69 783.239C1466.04 783.126 1466.47 783.516 1466.66 784.102L1467.37 786.291ZM1471.37 784.996C1471.56 785.589 1471.43 786.151 1471.08 786.265L1469.77 786.692C1469.41 786.807 1468.98 786.423 1468.79 785.83L1468.08 783.641C1467.89 783.055 1468.01 782.487 1468.37 782.372L1469.69 781.945C1470.04 781.831 1470.47 782.221 1470.66 782.807L1471.37 784.996ZM1475.35 783.705C1475.55 784.299 1475.42 784.86 1475.07 784.973L1473.75 785.402C1473.4 785.515 1472.97 785.133 1472.78 784.54L1472.07 782.351C1471.88 781.765 1472 781.195 1472.35 781.082L1473.68 780.654C1474.03 780.54 1474.46 780.93 1474.65 781.517L1475.35 783.705Z" fill="#C4C4C4"/>
<circle cx="1365.5" cy="757.5" r="2.5" fill="#E5E5E5"/>
</g>
<circle cx="1320.5" cy="649.5" r="2.5" fill="#E5E5E5"/>
<circle cx="1288.5" cy="586.5" r="2.5" fill="#E5E5E5"/>
<circle cx="1203.5" cy="624.5" r="2.5" fill="#E5E5E5"/>
<g clip-path="url(#clip10)">
<path d="M105.638 808.009C106.347 808.041 106.915 808.608 106.949 809.317C106.954 809.439 107.081 812.355 106.059 816.414C105.119 820.147 102.983 825.615 98.1417 830.467C97.631 830.979 97.1004 831.472 96.5557 831.948C97.7311 834.227 98.2323 836.83 97.9728 839.402C97.6671 842.429 96.3133 845.284 94.1606 847.442L90.922 850.688C90.0693 851.6 88.4277 850.839 88.578 849.594C88.9231 845.747 87.6686 841.972 85.1209 839.107C83.8608 839.686 82.658 840.188 81.5585 840.616C81.223 840.746 80.8578 840.737 80.537 840.605C80.0452 841.974 78.9658 843.04 77.5623 843.509L71.1124 845.668C70.6183 845.833 70.0731 845.705 69.7043 845.337C69.3354 844.969 69.2061 844.424 69.3704 843.93L71.5137 837.475C71.98 836.07 73.0435 834.988 74.411 834.493C74.2785 834.173 74.2684 833.808 74.3981 833.472C74.8234 832.371 75.3227 831.167 75.898 829.906C73.0276 827.365 69.2494 826.119 65.4037 826.473C64.1586 826.627 63.3944 824.986 64.3036 824.132L67.5422 820.886C69.6949 818.728 72.5474 817.367 75.574 817.055C78.1447 816.789 80.7491 817.284 83.0303 818.455C83.5054 817.909 83.9972 817.377 84.5079 816.865C89.3489 812.013 94.8123 809.864 98.543 808.915C102.6 807.884 105.515 808.003 105.638 808.009V808.009ZM91.2774 846.437L92.213 845.499C95.3144 842.39 96.1155 837.647 94.3566 833.723C92.1922 835.34 89.8935 836.715 87.6741 837.863C89.6764 840.333 90.9186 843.304 91.2774 846.437V846.437ZM75.5791 837.01C74.881 837.175 74.3509 837.661 74.1247 838.342L72.8484 842.186L76.6892 840.9C77.3697 840.673 77.854 840.141 78.0181 839.443C78.1283 838.973 78.0747 838.507 77.8738 838.098L76.924 837.151C76.5144 836.951 76.0483 836.898 75.5791 837.01ZM69.49 822.829L68.5543 823.767C71.6882 824.118 74.6619 825.353 77.1361 827.35C78.2793 825.128 79.6487 822.826 81.2605 820.658C77.3332 818.908 72.5914 819.72 69.49 822.829ZM86.4557 818.808C82.0879 823.186 79.1022 829.135 77.2924 833.632L81.3918 837.722C85.8847 835.901 91.8265 832.902 96.1941 828.524C99.2076 825.504 101.067 822.218 102.213 819.363C100.661 818.841 99.2713 817.967 98.1383 816.837C97.0055 815.707 96.1291 814.319 95.6025 812.769C92.657 813.954 89.4247 815.832 86.4557 818.808V818.808ZM98.2018 811.866C98.9785 814.173 100.803 815.993 103.113 816.763C103.206 816.445 103.291 816.136 103.366 815.84C103.908 813.719 104.103 811.932 104.171 810.79C102.873 810.871 100.735 811.121 98.2018 811.866V811.866Z" fill="#C4C4C4"/>
<path d="M68.0995 846.946C68.6373 847.482 68.6383 848.353 68.1017 848.891L66.1586 850.839C65.622 851.377 64.751 851.378 64.2132 850.841C63.6753 850.304 63.6743 849.433 64.2109 848.896L66.1541 846.948C66.6907 846.41 67.5616 846.409 68.0995 846.946V846.946Z" fill="#C4C4C4"/>
<path d="M65.5406 840.788C65.5415 841.548 64.9263 842.164 64.1666 842.165L61.4153 842.168C60.6556 842.169 60.039 841.554 60.0381 840.794C60.0372 840.035 60.6524 839.418 61.4121 839.417L64.1633 839.414C64.9231 839.413 65.5397 840.028 65.5406 840.788Z" fill="#C4C4C4"/>
<path d="M74.263 849.49C75.0228 849.489 75.6394 850.105 75.6403 850.864L75.6435 853.615C75.6444 854.375 75.0292 854.992 74.2695 854.993C73.5098 854.994 72.8931 854.378 72.8922 853.619L72.8889 850.867C72.8881 850.108 73.5032 849.491 74.263 849.49Z" fill="#C4C4C4"/>
<path d="M95.586 825.238C93.9787 826.849 91.3607 826.852 89.7498 825.245C88.1388 823.638 88.1357 821.02 89.743 819.409C91.3502 817.798 93.9683 817.795 95.5792 819.402C97.1901 821.009 97.1932 823.627 95.586 825.238ZM91.6906 821.352C91.1549 821.889 91.1559 822.762 91.6929 823.297C92.2298 823.833 93.1025 823.832 93.6383 823.295C94.1741 822.758 94.173 821.885 93.636 821.35C93.099 820.814 92.2264 820.815 91.6906 821.352Z" fill="#C4C4C4"/>
</g>
<circle cx="124.5" cy="223.5" r="1.5" fill="#E5E5E5"/>
<circle cx="141.5" cy="228.5" r="1.5" fill="#E5E5E5"/>
<circle cx="209.5" cy="273.5" r="2.5" fill="#E5E5E5"/>
<circle cx="112.5" cy="359.5" r="2.5" fill="#E5E5E5"/>
<circle cx="278.5" cy="212.5" r="1.5" fill="#E5E5E5"/>
<circle cx="630.5" cy="173.5" r="1.5" fill="#E5E5E5"/>
<circle cx="591.5" cy="173.5" r="1.5" fill="#E5E5E5"/>
<circle cx="683.5" cy="330.5" r="1.5" fill="#E5E5E5"/>
<circle cx="598.5" cy="422.5" r="1.5" fill="#E5E5E5"/>
<circle cx="700.5" cy="512.5" r="1.5" fill="#E5E5E5"/>
<circle cx="614.5" cy="601.5" r="1.5" fill="#E5E5E5"/>
<circle cx="507.5" cy="664.5" r="1.5" fill="#E5E5E5"/>
<circle cx="399.5" cy="676.5" r="1.5" fill="#E5E5E5"/>
<circle cx="289.5" cy="746.5" r="1.5" fill="#E5E5E5"/>
<circle cx="243.5" cy="717.5" r="1.5" fill="#E5E5E5"/>
<circle cx="206.5" cy="678.5" r="1.5" fill="#E5E5E5"/>
<circle cx="153.5" cy="729.5" r="1.5" fill="#E5E5E5"/>
<circle cx="211.5" cy="791.5" r="1.5" fill="#E5E5E5"/>
<circle cx="329.5" cy="789.5" r="1.5" fill="#E5E5E5"/>
<circle cx="211.5" cy="204.5" r="1.5" fill="#E5E5E5"/>
</g>
<defs>
<clipPath id="clip0">
<rect width="1440" height="900" fill="white"/>
</clipPath>
<clipPath id="clip1">
<rect width="83" height="83" fill="white" transform="translate(769 274)"/>
</clipPath>
<clipPath id="clip2">
<rect width="83" height="83" fill="white" transform="translate(526.008 747.985) rotate(77.4696)"/>
</clipPath>
<clipPath id="clip3">
<rect width="75" height="75" fill="white" transform="translate(927 603)"/>
</clipPath>
<clipPath id="clip4">
<rect width="75" height="75" fill="white" transform="translate(141.13 44.1739) rotate(54.3654)"/>
</clipPath>
<clipPath id="clip5">
<rect width="75" height="75" fill="white" transform="translate(1358.96 357) rotate(54.3654)"/>
</clipPath>
<clipPath id="clip6">
<rect width="54" height="54" fill="white" transform="translate(1330.77 173.686) rotate(-101.505)"/>
</clipPath>
<clipPath id="clip7">
<rect width="130.007" height="130.007" fill="white" transform="translate(-41.069 557.326) rotate(-101.505)"/>
</clipPath>
<clipPath id="clip8">
<rect width="136" height="136" fill="white" transform="translate(358 138)"/>
</clipPath>
<clipPath id="clip9">
<rect width="136" height="136" fill="white" transform="translate(1329 761.881) rotate(-17.9358)"/>
</clipPath>
<clipPath id="clip10">
<rect width="46.9546" height="46.9546" fill="white" transform="matrix(-0.00116541 -0.999999 -0.999999 0.00116541 107.009 854.955)"/>
</clipPath>
</defs>
</svg>
