<svg id="Business" height="512" viewBox="0 0 64 64" width="512" xmlns="http://www.w3.org/2000/svg"><path d="m5 17h52a0 0 0 0 1 0 0v34a0 0 0 0 1 0 0h-52a2 2 0 0 1 -2-2v-30a2 2 0 0 1 2-2z" fill="#244c54"/><rect fill="#4a80aa" height="17" rx="2" width="54" x="3" y="11"/><path d="m26 28h8v6h-8z" fill="#fff"/><path d="m38 3h-16a2 2 0 0 0 -2 2v6h4v-4h12v4h4v-6a2 2 0 0 0 -2-2z" fill="#57565c"/><path d="m34 26h27v35h-27z" fill="#7ccff7"/><path d="m15 55h24a3 3 0 0 1 3 3 3 3 0 0 1 -3 3h-24l-6-3z" fill="#ff4b3c"/><g fill="#1a6fb0"><path d="m38 38h9v2h-9z"/><path d="m38 42h19v2h-19z"/><path d="m38 46h19v2h-19z"/><path d="m38 50h19v2h-19z"/><path d="m38 30h3v2h-3z"/><path d="m43 30h14v2h-14z"/><path d="m38 34h7v2h-7z"/><path d="m47 34h10v2h-10z"/><path d="m49 38h8v2h-8z"/></g><path d="m15 61-2-1v-4l2-1z" fill="#3e3d42"/></svg>